<svg xmlns="http://www.w3.org/2000/svg" xmlns:xlink="http://www.w3.org/1999/xlink" version="1.1" xml:space="preserve" viewBox="0 0 300 112.51">
<rect x="0" y="0" width="100%" height="100%" fill="rgba(255,255,255,0)"/>
<g transform="matrix(0.2557 0 0 0.2557 59.3224 59.3224)" id="152911">
<g style="" vector-effect="non-scaling-stroke">
		<g transform="matrix(1 0 0 1 -80 -128)" id="Layer_1">
<rect style="stroke: none; stroke-width: 1; stroke-dasharray: none; stroke-linecap: butt; stroke-dashoffset: 0; stroke-linejoin: miter; stroke-miterlimit: 4; is-custom-font: none; font-file-url: none; fill: rgb(255,248,239); fill-rule: nonzero; opacity: 1;" x="-16" y="-24" rx="0" ry="0" width="32" height="48"/>
</g>
		<g transform="matrix(1 0 0 1 -120 -128)" id="Layer_1">
<rect style="stroke: none; stroke-width: 1; stroke-dasharray: none; stroke-linecap: butt; stroke-dashoffset: 0; stroke-linejoin: miter; stroke-miterlimit: 4; is-custom-font: none; font-file-url: none; fill: rgb(255,153,0); fill-rule: nonzero; opacity: 1;" x="-8" y="-24" rx="0" ry="0" width="16" height="48"/>
</g>
		<g transform="matrix(1 0 0 1 -40 -128)" id="Layer_1">
<rect style="stroke: none; stroke-width: 1; stroke-dasharray: none; stroke-linecap: butt; stroke-dashoffset: 0; stroke-linejoin: miter; stroke-miterlimit: 4; is-custom-font: none; font-file-url: none; fill: rgb(255,153,0); fill-rule: nonzero; opacity: 1;" x="-8" y="-24" rx="0" ry="0" width="16" height="48"/>
</g>
		<g transform="matrix(1 0 0 1 128 160)" id="Layer_1">
<path style="stroke: none; stroke-width: 1; stroke-dasharray: none; stroke-linecap: butt; stroke-dashoffset: 0; stroke-linejoin: miter; stroke-miterlimit: 4; is-custom-font: none; font-file-url: none; fill: rgb(255,248,239); fill-rule: nonzero; opacity: 1;" transform=" translate(-360, -392)" d="M 360 360 c 17.6 0 32 14.4 32 32 s -14.4 32 -32 32 s -32 -14.4 -32 -32 S 342.4 360 360 360 z M 384 392 c 0 -13.6 -10.4 -24 -24 -24 s -24 10.4 -24 24 s 10.4 24 24 24 S 384 405.6 384 392 z" stroke-linecap="round"/>
</g>
		<g transform="matrix(1 0 0 1 -88 160)" id="Layer_1">
<path style="stroke: none; stroke-width: 1; stroke-dasharray: none; stroke-linecap: butt; stroke-dashoffset: 0; stroke-linejoin: miter; stroke-miterlimit: 4; is-custom-font: none; font-file-url: none; fill: rgb(255,248,239); fill-rule: nonzero; opacity: 1;" transform=" translate(-144, -392)" d="M 144 360 c 17.6 0 32 14.4 32 32 s -14.4 32 -32 32 s -32 -14.4 -32 -32 S 126.4 360 144 360 z M 168 392 c 0 -13.6 -11.2 -24 -24 -24 s -24 10.4 -24 24 s 11.2 24 24 24 S 168 405.6 168 392 z" stroke-linecap="round"/>
</g>
		<g transform="matrix(1 0 0 1 -128 24)" id="Layer_1">
<rect style="stroke: none; stroke-width: 1; stroke-dasharray: none; stroke-linecap: butt; stroke-dashoffset: 0; stroke-linejoin: miter; stroke-miterlimit: 4; is-custom-font: none; font-file-url: none; fill: rgb(108,211,216); fill-rule: nonzero; opacity: 1;" x="-48" y="-24" rx="0" ry="0" width="96" height="48"/>
</g>
		<g transform="matrix(1 0 0 1 20 24)" id="Layer_1">
<rect style="stroke: none; stroke-width: 1; stroke-dasharray: none; stroke-linecap: butt; stroke-dashoffset: 0; stroke-linejoin: miter; stroke-miterlimit: 4; is-custom-font: none; font-file-url: none; fill: rgb(108,211,216); fill-rule: nonzero; opacity: 1;" x="-52" y="-24" rx="0" ry="0" width="104" height="48"/>
</g>
		<g transform="matrix(1 0 0 1 168 24)" id="Layer_1">
<rect style="stroke: none; stroke-width: 1; stroke-dasharray: none; stroke-linecap: butt; stroke-dashoffset: 0; stroke-linejoin: miter; stroke-miterlimit: 4; is-custom-font: none; font-file-url: none; fill: rgb(108,211,216); fill-rule: nonzero; opacity: 1;" x="-48" y="-24" rx="0" ry="0" width="96" height="48"/>
</g>
		<g transform="matrix(1 0 0 1 0 0)" id="Layer_1">
<path style="stroke: none; stroke-width: 1; stroke-dasharray: none; stroke-linecap: butt; stroke-dashoffset: 0; stroke-linejoin: miter; stroke-miterlimit: 4; is-custom-font: none; font-file-url: none; fill: rgb(66,33,11); fill-rule: nonzero; opacity: 1;" transform=" translate(-232, -232)" d="M 464 376 v 10.4 c 0 7.2 -5.6 13.6 -13.6 13.6 h -43.2 c -4 22.4 -23.2 40 -47.2 40 s -43.2 -17.6 -47.2 -40 H 191.2 c -4 22.4 -23.2 40 -47.2 40 s -43.2 -17.6 -47.2 -40 h -44 c -7.2 0 -12.8 -5.6 -12.8 -13.6 V 376 v -16 H 28.8 C 12.8 360 0 347.2 0 331.2 v -70.4 c 0 -16 12.8 -28.8 28.8 -28.8 H 40 v -0.8 c 0 -30.4 24.8 -55.2 55.2 -55.2 H 120 v -8 H 80 c -4.8 0 -8 -4 -8 -8 v -24 c 0 -4 3.2 -8 8 -8 h 8 V 72 c 0 -4.8 3.2 -8 8 -8 h 32 V 48 c 0 -4.8 4 -8 8 -8 h 32 c 4 0 8 3.2 8 8 v 16 h 32 c 4 0 8 3.2 8 8 v 56 h 20.8 c -3.2 -4.8 -4.8 -10.4 -4.8 -16 c 0 -17.6 14.4 -32 32 -32 c 5.6 0 11.2 1.6 16 4.8 l 22.4 -22.4 l -4 -14.4 H 288 c -4 0 -8 -3.2 -8 -8 V 24 h 16 v 8 h 32 v 16 h -12.8 l 2.4 8 H 348 l -4 -13.6 c 0 -2.4 0 -4.8 1.6 -7.2 c 1.6 -1.6 4 -3.2 6.4 -3.2 h 36 c 11.2 0 20 8.8 20 20 s -8.8 20 -20 20 h -4 V 56 h 4 c 2.4 0 4 -1.6 4 -4 s -1.6 -4 -4 -4 h -25.6 l 9.6 34.4 c 4 -1.6 8 -2.4 12 -2.4 c 17.6 0 32 14.4 32 32 c 0 5.6 -1.6 11.2 -4.8 16 h 4.8 c 4 0 8 4 8 8 v 24 c 0 4 -4 8 -8 8 h -32 v 8 h 24.8 c 30.4 0 55.2 24.8 55.2 55.2 V 360 V 376 z M 448 384 v -8 h -42.4 c 0.8 2.4 1.6 5.6 2.4 8 H 448 z M 448 360 v -32 h -16 v 32 H 448 z M 448 312 v -16 H 344 c -4 0 -8 -4 -8 -8 v -64 c 0 -4 4 -8 8 -8 h 100.8 c -6.4 -14.4 -20 -24 -36 -24 H 95.2 c -16 0 -30.4 9.6 -36 24 H 160 c 4 0 8 4 8 8 v 64 c 0 4 -4 8 -8 8 H 56 v 16 h 24 c 4.8 0 8 4 8 8 v 40 h 20 c 8.8 -9.6 21.6 -16 36 -16 s 27.2 6.4 36 16 h 144.8 c 8.8 -9.6 21.6 -16 36 -16 s 27.2 6.4 36 16 H 416 v -40 c 0 -4 4 -8 8 -8 H 448 z M 448 280 v -48 h -96 v 48 H 448 z M 408 152 v -8 H 208 H 96 h -8 v 8 H 408 z M 400 112 c 0 -8.8 -7.2 -16 -16 -16 s -16 7.2 -16 16 s 7.2 16 16 16 S 400 120.8 400 112 z M 392 392 c 0 -17.6 -14.4 -32 -32 -32 s -32 14.4 -32 32 s 14.4 32 32 32 S 392 409.6 392 392 z M 368 176 v -8 H 136 v 8 H 368 z M 356.8 85.6 l -4 -13.6 h -29.6 l 9.6 28 L 356.8 85.6 z M 291.2 128 H 356 c -3.2 -4.8 -4.8 -10.4 -4.8 -16 c 0 -1.6 0 -4 0.8 -5.6 l -20.8 12 l 0 0 c 0 0.8 -1.6 1.6 -3.2 1.6 h -32.8 C 294.4 123.2 292.8 125.6 291.2 128 z M 316.8 104 l -8 -24.8 L 291.2 96 c 1.6 2.4 2.4 5.6 3.2 8 H 316.8 z M 314.4 376 H 188.8 c 0.8 2.4 1.6 5.6 2.4 8 h 121.6 C 313.6 381.6 313.6 378.4 314.4 376 z M 280 112 c 0 -8.8 -7.2 -16 -16 -16 s -16 7.2 -16 16 s 7.2 16 16 16 S 280 120.8 280 112 z M 200 128 V 80 h -16 v 48 H 200 z M 176 392 c 0 -17.6 -14.4 -32 -32 -32 s -32 14.4 -32 32 s 14.4 32 32 32 S 176 409.6 176 392 z M 168 128 V 80 h -32 v 48 H 168 z M 160 64 v -8 h -16 v 8 H 160 z M 152 280 v -48 H 56 v 48 H 152 z M 120 128 V 80 h -16 v 48 H 120 z M 99.2 376 H 56 v 8 h 40.8 C 96.8 381.6 97.6 378.4 99.2 376 z M 72 360 v -32 H 56 v 32 H 72 z M 40 344 v -96 H 28.8 c -7.2 0 -12.8 5.6 -12.8 12.8 v 70.4 c 0 7.2 5.6 12.8 12.8 12.8 H 40 z" stroke-linecap="round"/>
</g>
		<g transform="matrix(1 0 0 1 194.4 148)" id="Layer_1">
<path style="stroke: none; stroke-width: 1; stroke-dasharray: none; stroke-linecap: butt; stroke-dashoffset: 0; stroke-linejoin: miter; stroke-miterlimit: 4; is-custom-font: none; font-file-url: none; fill: rgb(179,125,77); fill-rule: nonzero; opacity: 1;" transform=" translate(-426.4, -380)" d="M 448 376 v 8 h -40.8 c -0.8 -2.4 -1.6 -5.6 -2.4 -8 H 448 z" stroke-linecap="round"/>
</g>
		<g transform="matrix(1 0 0 1 208 112)" id="Layer_1">
<rect style="stroke: none; stroke-width: 1; stroke-dasharray: none; stroke-linecap: butt; stroke-dashoffset: 0; stroke-linejoin: miter; stroke-miterlimit: 4; is-custom-font: none; font-file-url: none; fill: rgb(238,86,86); fill-rule: nonzero; opacity: 1;" x="-8" y="-16" rx="0" ry="0" width="16" height="32"/>
</g>
		<g transform="matrix(1 0 0 1 20 44)" id="Layer_1">
<path style="stroke: none; stroke-width: 1; stroke-dasharray: none; stroke-linecap: butt; stroke-dashoffset: 0; stroke-linejoin: miter; stroke-miterlimit: 4; is-custom-font: none; font-file-url: none; fill: rgb(255,248,239); fill-rule: nonzero; opacity: 1;" transform=" translate(-252, -276)" d="M 344 296 c -4 0 -8 -4 -8 -8 v -64 c 0 -4 4 -8 8 -8 h 100.8 c -6.4 -14.4 -20 -24 -36 -24 H 95.2 c -16 0 -30.4 9.6 -36 24 H 160 c 4 0 8 4 8 8 v 64 c 0 4 -4 8 -8 8 H 56 v 16 h 24 c 4 0 8 4 8 8 v 40 h 20 c 8.8 -9.6 21.6 -16 36 -16 s 27.2 6.4 36 16 h 144.8 c 8.8 -9.6 21.6 -16 36 -16 s 27.2 6.4 36 16 H 416 v -40 c 0 -4 4 -8 8 -8 h 24 v -16 H 344 z M 312 296 H 192 c -4 0 -8 -4 -8 -8 v -64 c 0 -4 4 -8 8 -8 h 120 c 4 0 8 4 8 8 v 64 C 320 292 316 296 312 296 z M 376 328 h -32 v -16 h 32 V 328 z" stroke-linecap="round"/>
</g>
		<g transform="matrix(1 0 0 1 16 -84)" id="Layer_1">
<polygon style="stroke: none; stroke-width: 1; stroke-dasharray: none; stroke-linecap: butt; stroke-dashoffset: 0; stroke-linejoin: miter; stroke-miterlimit: 4; is-custom-font: none; font-file-url: none; fill: rgb(179,125,77); fill-rule: nonzero; opacity: 1;" points="160,-4 160,4 -160,4 -160,-4 -152,-4 -40,-4 "/>
</g>
		<g transform="matrix(1 0 0 1 128 160)" id="Layer_1">
<path style="stroke: none; stroke-width: 1; stroke-dasharray: none; stroke-linecap: butt; stroke-dashoffset: 0; stroke-linejoin: miter; stroke-miterlimit: 4; is-custom-font: none; font-file-url: none; fill: rgb(66,33,11); fill-rule: nonzero; opacity: 1;" transform=" translate(-360, -392)" d="M 360 368 c 13.6 0 24 10.4 24 24 s -10.4 24 -24 24 s -24 -10.4 -24 -24 S 346.4 368 360 368 z M 368 392 c 0 -4 -4 -8 -8 -8 s -8 4 -8 8 s 4 8 8 8 S 368 396 368 392 z" stroke-linecap="round"/>
</g>
		<g transform="matrix(1 0 0 1 128 88)" id="Layer_1">
<rect style="stroke: none; stroke-width: 1; stroke-dasharray: none; stroke-linecap: butt; stroke-dashoffset: 0; stroke-linejoin: miter; stroke-miterlimit: 4; is-custom-font: none; font-file-url: none; fill: rgb(66,33,11); fill-rule: nonzero; opacity: 1;" x="-16" y="-8" rx="0" ry="0" width="32" height="16"/>
</g>
		<g transform="matrix(1 0 0 1 20 24)" id="Layer_1">
<path style="stroke: none; stroke-width: 1; stroke-dasharray: none; stroke-linecap: butt; stroke-dashoffset: 0; stroke-linejoin: miter; stroke-miterlimit: 4; is-custom-font: none; font-file-url: none; fill: rgb(66,33,11); fill-rule: nonzero; opacity: 1;" transform=" translate(-252, -256)" d="M 320 224 v 64 c 0 4 -4 8 -8 8 H 192 c -4 0 -8 -4 -8 -8 v -64 c 0 -4 4 -8 8 -8 h 120 C 316 216 320 220 320 224 z M 304 280 v -48 H 200 v 48 H 304 z" stroke-linecap="round"/>
</g>
		<g transform="matrix(1 0 0 1 19.6 148)" id="Layer_1">
<path style="stroke: none; stroke-width: 1; stroke-dasharray: none; stroke-linecap: butt; stroke-dashoffset: 0; stroke-linejoin: miter; stroke-miterlimit: 4; is-custom-font: none; font-file-url: none; fill: rgb(179,125,77); fill-rule: nonzero; opacity: 1;" transform=" translate(-251.6, -380)" d="M 188.8 376 h 125.6 c -0.8 2.4 -1.6 5.6 -2.4 8 H 191.2 C 191.2 381.6 190.4 378.4 188.8 376 z" stroke-linecap="round"/>
</g>
		<g transform="matrix(1 0 0 1 -88 160)" id="Layer_1">
<path style="stroke: none; stroke-width: 1; stroke-dasharray: none; stroke-linecap: butt; stroke-dashoffset: 0; stroke-linejoin: miter; stroke-miterlimit: 4; is-custom-font: none; font-file-url: none; fill: rgb(66,33,11); fill-rule: nonzero; opacity: 1;" transform=" translate(-144, -392)" d="M 144 368 c 12.8 0 24 10.4 24 24 s -11.2 24 -24 24 s -24 -10.4 -24 -24 S 131.2 368 144 368 z M 152 392 c 0 -4 -4 -8 -8 -8 s -8 4 -8 8 s 4 8 8 8 S 152 396 152 392 z" stroke-linecap="round"/>
</g>
		<g transform="matrix(1 0 0 1 -154.4 148)" id="Layer_1">
<path style="stroke: none; stroke-width: 1; stroke-dasharray: none; stroke-linecap: butt; stroke-dashoffset: 0; stroke-linejoin: miter; stroke-miterlimit: 4; is-custom-font: none; font-file-url: none; fill: rgb(179,125,77); fill-rule: nonzero; opacity: 1;" transform=" translate(-77.6, -380)" d="M 56 376 h 43.2 c -0.8 2.4 -1.6 5.6 -2.4 8 H 56 V 376 z" stroke-linecap="round"/>
</g>
		<g transform="matrix(1 0 0 1 -168 112)" id="Layer_1">
<rect style="stroke: none; stroke-width: 1; stroke-dasharray: none; stroke-linecap: butt; stroke-dashoffset: 0; stroke-linejoin: miter; stroke-miterlimit: 4; is-custom-font: none; font-file-url: none; fill: rgb(238,86,86); fill-rule: nonzero; opacity: 1;" x="-8" y="-16" rx="0" ry="0" width="16" height="32"/>
</g>
		<g transform="matrix(1 0 0 1 -204 64)" id="Layer_1">
<path style="stroke: none; stroke-width: 1; stroke-dasharray: none; stroke-linecap: butt; stroke-dashoffset: 0; stroke-linejoin: miter; stroke-miterlimit: 4; is-custom-font: none; font-file-url: none; fill: rgb(179,125,77); fill-rule: nonzero; opacity: 1;" transform=" translate(-28, -296)" d="M 40 248 v 96 H 28.8 c -7.2 0 -12.8 -5.6 -12.8 -12.8 v -70.4 c 0 -7.2 5.6 -12.8 12.8 -12.8 H 40 z" stroke-linecap="round"/>
</g>
		<g transform="matrix(1 0 0 1 20 116)" id="Layer_1">
<path style="stroke: none; stroke-width: 1; stroke-dasharray: none; stroke-linecap: butt; stroke-dashoffset: 0; stroke-linejoin: miter; stroke-miterlimit: 4; is-custom-font: none; font-file-url: none; fill: rgb(217,205,193); fill-rule: nonzero; opacity: 1;" transform=" translate(-252, -348)" d="M 88 336 v 24 h 20 c 8.8 -9.6 21.6 -16 36 -16 s 27.2 6.4 36 16 h 144.8 c 8.8 -9.6 21.6 -16 36 -16 s 27.2 6.4 36 16 H 416 v -24 H 88 z" stroke-linecap="round"/>
</g>
</g>
</g>
<g transform="matrix(1 0 0 1 191.5851 65.603)" style="" id="138524">
		
<path xml:space="preserve" class="logo-text" font-family="Caveat" font-size="93" font-style="normal" font-weight="bold" style="stroke: none; stroke-width: 1; stroke-dasharray: none; stroke-linecap: butt; stroke-dashoffset: 0; stroke-linejoin: miter; stroke-miterlimit: 4; is-custom-font: none; font-file-url: none; fill: rgb(66,33,11); fill-rule: nonzero; opacity: 1; white-space: pre;" d="M-46.59 34.14L-46.59 34.14Q-48.27 34.24-49.38 32.56Q-50.50 30.89-50.41 29.77L-50.41 29.77Q-50.31 28.29-49.57 25.50Q-48.82 22.70-47.89 19.82Q-46.96 16.94-46.22 15.27L-46.22 15.27Q-45.85 13.78-45.52 12.61Q-45.20 11.45-45.10 11.08L-45.10 11.08Q-44.83 10.71-44.22 9.13Q-43.62 7.55-43.24 6.06L-43.24 6.06Q-43.06 5.31-42.45 3.22Q-41.85 1.13-40.97-1.66Q-40.08-4.45-39.20-7.15Q-38.32-9.85-37.66-11.89Q-37.01-13.94-36.83-14.59L-36.83-14.59Q-36.08-15.70-35.71-16.73Q-35.34-17.75-35.25-18.12L-35.25-18.12Q-34.69-18.49-34.60-19.10Q-34.50-19.70-34.50-20.07L-34.50-20.07Q-34.50-20.54-34.18-20.82Q-33.85-21.10-33.85-21.47L-33.85-21.47Q-33.48-21.75-33.39-21.56Q-33.29-21.38-32.83-21.84L-32.83-21.84L-32.36-25.00L-24.09-25.10Q-24.27-23.98-24.64-22.35Q-25.02-20.73-26.41-18.03L-26.41-18.03Q-26.88-16.17-27.48-14.68Q-28.09-13.19-27.99-12.73L-27.99-12.73Q-28.18-12.54-28.78-10.87Q-29.39-9.19-30.18-6.78Q-30.97-4.36-31.76-1.94Q-32.55 0.48-33.15 2.29Q-33.76 4.11-33.95 4.57L-33.95 4.57Q-34.69 6.06-35.62 8.94Q-36.55 11.82-38.41 16.75L-38.41 16.75Q-39.15 18.24-40.22 21.22Q-41.29 24.19-41.94 26.61L-41.94 26.61Q-42.97 30.24-43.76 31.82Q-44.55 33.40-45.20 33.73Q-45.85 34.05-46.59 34.14ZM-45.76-20.54L-45.76-20.54Q-49.57-20.17-50.92-21.47Q-52.27-22.77-51.89-24.26L-51.89-24.26Q-51.61-25.38-50.55-26.17Q-49.48-26.96-46.59-27.51L-46.59-27.51Q-45.57-27.70-43.94-27.98Q-42.31-28.26-40.83-28.54L-40.83-28.54Q-37.76-28.91-35.76-29.19Q-33.76-29.47-31.62-29.65Q-29.48-29.84-26.23-30.03L-26.23-30.03Q-23.53-30.21-21.62-30.35Q-19.72-30.49-19.72-30.49L-19.72-30.49Q-19.44-30.49-17.76-30.30Q-16.09-30.12-14.14-29.84Q-12.18-29.56-11.25-29.19L-11.25-29.19Q-9.11-28.72-7.81-27.51Q-6.51-26.31-6.14-24.72L-6.14-24.72Q-5.86-23.61-6.14-23.00Q-6.42-22.40-7.16-22.03L-7.16-22.03Q-9.30-21.38-10.65-20.96Q-12.00-20.54-13.30-21.00L-13.30-21.00Q-13.76-21.47-14.37-21.84Q-14.97-22.21-16.41-22.45Q-17.86-22.68-20.92-22.86L-20.92-22.86Q-23.53-22.59-25.48-22.59Q-27.43-22.59-27.43-22.12L-27.43-22.12L-32.92-21.84L-37.48-21.38Q-38.41-21.28-40.08-21.14Q-41.76-21.00-43.34-20.87Q-44.92-20.73-45.76-20.54ZM0.65 34.80L0.65 34.80Q0.19 34.61 0.00 34.24Q-0.19 33.87-0.37 32.75L-0.37 32.75Q-0.37 31.73-0.93 31.26Q-1.49 30.80-3.07 30.42L-3.07 30.42Q-4.09 29.40-4.74 28.05Q-5.39 26.70-5.77 23.68Q-6.14 20.66-6.51 14.71L-6.51 14.71Q-6.32 11.45-6.18 9.22Q-6.04 6.99-5.86 5.04Q-5.67 3.08-5.44 0.85Q-5.21-1.38-4.74-4.73L-4.74-4.73Q-4.93-6.87-4.51-9.38Q-4.09-11.89-4.37-13.38L-4.37-13.38Q-3.72-15.43-3.53-18.08Q-3.35-20.73-2.70-22.77L-2.70-22.77Q-2.51-24.35-2.28-25.75Q-2.05-27.14-2.05-28.07L-2.05-28.07Q-2.23-29.93-1.63-31.98Q-1.02-34.03 1.02-34.95L1.02-34.95Q1.58-35.14 2.56-35.14Q3.53-35.14 4.09-34.95L4.09-34.95Q5.58-34.30 5.81-32.91Q6.05-31.51 5.95-30.49L5.95-30.49Q6.14-29.47 6.18-26.96Q6.23-24.45 6.00-21.42Q5.77-18.40 5.12-15.52L5.12-15.52Q4.37-11.71 3.95-7.75Q3.53-3.80 3.35 0.01L3.35 0.01Q2.98 7.64 2.60 12.66Q2.23 17.68 2.51 19.91L2.51 19.91Q2.51 20.19 2.56 20.71Q2.60 21.22 2.79 21.54Q2.98 21.87 3.26 21.87L3.26 21.87Q3.63 21.77 3.86 21.31Q4.09 20.84 4.42 19.91Q4.74 18.98 5.30 17.78L5.30 17.78Q6.51 15.45 7.77 12.71Q9.02 9.96 9.95 7.45L9.95 7.45Q11.63 3.55 13.30 0.76Q14.97-2.03 16.46-5.47L16.46-5.47Q17.02-6.96 18.46-9.80Q19.90-12.64 21.20-15.05L21.20-15.05Q22.79-17.47 24.23-19.70Q25.67-21.93 27.62-25.65L27.62-25.65Q30.32-30.12 32.27-32.21Q34.22-34.30 35.71-34.30L35.71-34.30Q36.74-34.49 37.43-34.35Q38.13-34.21 38.78-33.28L38.78-33.28Q39.53-32.26 39.71-30.96Q39.90-29.65 39.11-27.61Q38.32-25.56 35.90-22.12L35.90-22.12Q34.04-19.33 31.76-15.61Q29.48-11.89 27.57-8.59Q25.67-5.29 24.83-3.71L24.83-3.71Q24.37-2.68 23.99-1.57Q23.62-0.45 22.88 0.48L22.88 0.48Q21.95 1.41 20.37 4.48Q18.79 7.55 17.30 10.52L17.30 10.52Q15.62 14.43 14.65 16.61Q13.67 18.80 13.07 20.19Q12.46 21.59 11.90 22.89Q11.35 24.19 10.51 26.15L10.51 26.15Q10.04 27.73 9.25 28.84Q8.46 29.96 8.37 30.52L8.37 30.52Q7.72 31.54 6.09 32.66Q4.46 33.77 2.88 34.42Q1.30 35.07 0.65 34.80ZM30.50 34.52L30.50 34.52Q29.39 34.52 28.64 33.31L28.64 33.31Q28.09 32.75 27.44 31.54Q26.78 30.33 27.02 27.59Q27.25 24.84 29.02 19.54L29.02 19.54Q29.95 16.01 30.50 14.38Q31.06 12.75 31.06 12.01L31.06 12.01Q31.06 10.99 31.29 10.29Q31.53 9.59 31.53 8.94L31.53 8.94Q32.09 8.94 32.64 7.92Q33.20 6.89 33.57 5.13L33.57 5.13Q33.95 3.55 34.27 2.57Q34.60 1.59 34.60 1.22L34.60 1.22Q35.06 0.48 35.57-1.10Q36.08-2.68 37.20-4.92L37.20-4.92Q37.94-7.71 38.87-10.73Q39.80-13.75 40.78-16.40Q41.76-19.05 42.41-20.54L42.41-20.54Q43.43-23.42 43.99-24.59Q44.55-25.75 43.99-26.12L43.99-26.12Q43.34-26.58 43.38-28.49Q43.43-30.40 45.11-31.79L45.11-31.79Q46.13-33.00 47.71-33.51Q49.29-34.03 51.34-34.03Q53.38-34.03 55.61-33.84L55.61-33.84Q57.29-33.75 59.19-33.75Q61.10-33.75 61.57-33.75L61.57-33.75Q62.40-33.37 63.61-32.91Q64.82-32.44 65.80-32.03Q66.77-31.61 66.77-31.33L66.77-31.33Q66.77-30.77 67.19-30.63Q67.61-30.49 68.08-30.40L68.08-30.40Q68.73-30.40 70.22-29.24Q71.70-28.07 73.24-26.45Q74.77-24.82 75.42-23.24L75.42-23.24Q76.17-21.66 76.68-20.26Q77.19-18.87 76.72-16.26L76.72-16.26Q76.63-14.87 76.31-13.47Q75.98-12.08 75.61-11.61L75.61-11.61Q75.05-11.24 74.59-10.68Q74.12-10.12 74.12-9.66L74.12-9.66Q74.12-9.29 73.38-7.85Q72.63-6.40 71.52-4.59Q70.40-2.78 69.10-1.01Q67.80 0.76 66.68 1.78L66.68 1.78Q65.47 3.27 63.84 4.57Q62.22 5.87 60.92 6.71L60.92 6.71Q58.50 7.82 55.38 8.85Q52.27 9.87 49.38 10.48Q46.50 11.08 44.73 10.99L44.73 10.99Q42.04 11.36 41.20 11.68Q40.36 12.01 39.99 13.31L39.99 13.31Q39.53 14.52 39.11 15.82Q38.69 17.13 38.69 17.68L38.69 17.68Q38.50 18.05 37.90 19.73Q37.29 21.40 36.50 23.63Q35.71 25.87 35.06 28.10Q34.41 30.33 34.04 31.91L34.04 31.91Q33.67 33.21 32.50 33.87Q31.34 34.52 30.50 34.52ZM43.71 3.45L43.71 3.45Q44.08 3.83 46.13 3.55Q48.17 3.27 51.06 2.15L51.06 2.15Q52.92 1.50 54.82 0.57Q56.73-0.36 58.50-1.48L58.50-1.48Q59.43-2.13 60.45-3.10Q61.47-4.08 63.33-6.40L63.33-6.40Q63.61-6.87 64.31-8.22Q65.01-9.57 65.56-10.78L65.56-10.78Q66.40-12.08 67.24-14.63Q68.08-17.19 67.61-18.87L67.61-18.87Q67.15-21.28 65.75-22.91Q64.36-24.54 62.22-25.28L62.22-25.28Q60.17-25.65 58.82-25.75Q57.47-25.84 55.89-25.56L55.89-25.56Q54.41-25.10 53.80-24.26Q53.20-23.42 52.08-20.73L52.08-20.73Q51.43-19.42 50.22-17.15Q49.01-14.87 48.17-12.54L48.17-12.54Q46.50-6.40 45.24-3.15Q43.99 0.11 43.62 1.13L43.62 1.13Q43.71 2.15 43.52 2.57Q43.34 2.99 43.71 3.45Z"/></g>
</svg>